M48
; DRILL file {KiCad 5.1.6-c6e7f7d~86~ubuntu18.04.1} date Sun May  2 12:58:13 2021
; FORMAT={-:-/ absolute / inch / decimal}
; #@! TF.CreationDate,2021-05-02T12:58:13+02:00
; #@! TF.GenerationSoftware,Kicad,Pcbnew,5.1.6-c6e7f7d~86~ubuntu18.04.1
; #@! TF.FileFunction,Plated,1,2,PTH
FMAT,2
INCH
T1C0.0157
T2C0.0295
T3C0.0315
T4C0.0354
T5C0.0374
T6C0.0394
T7C0.0433
T8C0.0512
T9C0.0551
T10C0.0945
T11C0.1260
%
G90
G05
T1
X3.429Y-5.4999
X3.4494Y-5.3458
X3.96Y-6.0726
X3.9956Y-5.2567
X4.0582Y-3.9015
X4.0824Y-5.0021
X4.1393Y-3.138
X4.1577Y-4.9695
X4.2549Y-4.895
X4.4265Y-4.3472
X4.6294Y-5.2216
X4.8317Y-6.0027
X4.8689Y-6.2841
X4.9355Y-5.8934
X5.0807Y-4.1443
X5.1085Y-6.323
X5.1292Y-5.15
X5.1486Y-5.0048
X5.1551Y-5.8943
X5.173Y-5.9731
X5.2089Y-5.3602
X5.2657Y-6.65
X5.2669Y-5.7567
X5.3562Y-6.4443
X5.4028Y-6.0121
X5.4235Y-5.5549
X5.4259Y-6.2472
X5.4459Y-4.5443
X5.5265Y-5.9778
X5.6124Y-6.524
X5.6131Y-6.45
X5.6172Y-6.376
X5.6361Y-6.315
X5.6543Y-6.7636
X5.6899Y-5.5239
X5.7029Y-5.4056
X5.7062Y-5.5712
X5.7076Y-5.1584
X5.7194Y-4.8
X5.7246Y-4.9377
X5.766Y-5.9987
X5.8001Y-4.886
X5.8543Y-4.9173
X5.868Y-4.6375
X5.8889Y-5.6852
X5.9333Y-5.6724
X5.9709Y-7.5919
X6.0114Y-7.25
X6.0334Y-3.8314
X6.0534Y-5.7985
X6.0637Y-5.6057
X6.0697Y-5.5102
X6.0793Y-5.3556
X6.1363Y-6.4569
X6.1403Y-6.0694
X6.1469Y-4.0394
X6.1676Y-5.3429
X6.1736Y-6.3083
X6.1856Y-5.9457
X6.1952Y-7.1317
X6.1984Y-6.143
X6.2053Y-6.0499
X6.2423Y-6.031
X6.2466Y-7.2895
X6.2572Y-3.7761
X6.6024Y-6.8346
X6.6049Y-2.7506
X6.6298Y-6.3491
X6.7588Y-6.9479
X6.7612Y-7.2111
X6.7727Y-2.8535
X6.7794Y-8.1514
X6.8449Y-5.9884
X6.9057Y-7.2032
X6.9519Y-7.1366
X6.973Y-4.5312
X6.9759Y-7.9571
X7.054Y-3.1597
X7.133Y-5.9633
X7.1765Y-6.1148
X7.262Y-7.1456
X7.2836Y-5.3962
X7.2863Y-7.223
X7.3038Y-6.8886
X7.3344Y-7.121
X7.4323Y-6.0195
X7.44Y-7.122
X7.5111Y-8.1532
X7.5419Y-3.9413
X7.556Y-4.75
X7.5571Y-5.0126
X7.5571Y-7.568
X7.5705Y-7.4407
X7.6396Y-4.8568
X7.6703Y-4.0445
X7.691Y-5.5069
X7.7199Y-6.0023
X7.7435Y-6.8702
X7.7813Y-2.7561
X7.815Y-5.9253
X7.8923Y-4.9463
X7.8947Y-5.0056
X7.9221Y-3.9689
X7.9255Y-6.616
X7.9866Y-7.3054
X7.9875Y-5.2374
X7.9875Y-5.4036
X8.0023Y-4.5681
X8.0024Y-3.8333
X8.0052Y-4.7779
X8.0196Y-4.0563
X8.023Y-4.6031
X8.0318Y-3.2807
X8.0407Y-4.55
X8.0542Y-5.5561
X8.0706Y-8.145
X8.0781Y-3.8048
X8.0958Y-3.8646
X8.1139Y-6.6867
X8.1176Y-3.7848
X8.175Y-7.0563
X8.1762Y-4.3071
X8.1934Y-3.873
X8.1985Y-4.0481
X8.229Y-6.8348
X8.2313Y-7.3799
X8.2511Y-3.0933
X8.2657Y-7.3268
X8.2739Y-3.1264
X8.2894Y-7.5549
X8.3017Y-3.163
X8.3112Y-5.3662
X8.3141Y-6.1662
X8.3265Y-2.8638
X8.3637Y-4.7931
X8.364Y-7.7149
X8.4536Y-5.9037
X8.4692Y-7.4265
X8.4705Y-5.1778
X8.4746Y-4.5961
X8.5221Y-7.1144
X8.6182Y-6.1689
X8.6483Y-7.875
X8.652Y-5.4555
X8.6603Y-6.4931
X8.6882Y-7.9459
X8.6985Y-7.0557
X8.8058Y-5.0435
X8.8274Y-6.852
X8.8327Y-4.7828
X8.8435Y-6.062
X8.8447Y-6.1211
X8.8548Y-7.4108
X8.8552Y-4.7036
X8.8645Y-6.3453
X8.8971Y-7.6277
X8.9279Y-6.9471
X8.9279Y-6.8
X8.9425Y-5.7
X8.9445Y-7.683
X8.9623Y-3.683
X8.9713Y-5.9497
X8.9837Y-7.2825
X8.9859Y-6.0873
X9.0265Y-6.1673
X9.0281Y-6.0775
X9.0442Y-6.2311
X9.0496Y-5.157
X9.0583Y-5.8
X9.0619Y-6.2918
X9.0635Y-5.9497
X9.0812Y-6.886
X9.097Y-4.883
X9.1117Y-7.7751
X9.124Y-4.8025
X9.1408Y-5.2582
X9.1634Y-4.7749
X9.2672Y-2.8031
X9.2679Y-7.2183
X9.2731Y-5.519
X9.3014Y-5.5472
X9.3067Y-6.763
X9.4059Y-5.2191
X9.4249Y-5.4194
X9.4279Y-7.4659
X9.4426Y-4.8814
X9.4428Y-6.0466
X9.4442Y-6.9036
X9.4542Y-5.7614
X9.4568Y-5.9181
X9.4611Y-7.9668
X9.4787Y-6.5893
X9.4893Y-6.943
X9.5164Y-6.9716
X9.5358Y-8.2328
X9.6067Y-6.5847
X9.6081Y-4.8519
X9.6224Y-3.0652
X9.6326Y-7.175
X9.6577Y-7.1203
X9.7162Y-3.842
X9.7222Y-6.6428
X9.751Y-6.5847
X9.762Y-3.3229
X9.8927Y-7.9951
X9.9206Y-4.4589
X9.9239Y-6.4861
X9.9297Y-8.0147
X9.939Y-3.4999
X9.9436Y-7.6934
X9.974Y-4.6573
X9.985Y-6.9769
X9.9878Y-4.2495
X9.9893Y-7.4314
X9.9895Y-4.015
X10.0053Y-7.7622
X10.0101Y-8.1796
X10.0374Y-6.8409
X10.0441Y-8.2389
X10.0622Y-4.8348
X10.0795Y-4.2784
X10.0851Y-3.671
X10.0864Y-3.8182
X10.0898Y-6.6563
X10.1921Y-7.7157
X10.1947Y-3.8005
X10.2177Y-3.959
X10.2205Y-7.9033
X10.2705Y-3.7812
X10.2804Y-5.8338
X10.289Y-3.9907
X10.2928Y-6.5227
X10.3247Y-7.8386
X10.335Y-4.3893
X10.3396Y-3.9004
X10.3851Y-5.2937
X10.4177Y-5.8087
X10.475Y-7.4347
X10.4792Y-6.5181
X10.4847Y-5.5745
X10.4897Y-5.1064
X10.4909Y-5.7521
X10.5748Y-5.442
X10.6037Y-4.2314
X10.6285Y-5.3676
X10.6291Y-5.4638
X10.6658Y-4.9361
X10.6801Y-4.877
X10.6939Y-5.85
X10.716Y-5.8956
X10.7376Y-4.3139
X10.7448Y-5.1807
X10.7578Y-6.1371
X10.8287Y-3.163
X10.8331Y-6.3391
X10.8556Y-4.6679
X10.8719Y-7.8562
X10.8812Y-6.325
X10.9135Y-5.5927
X10.9213Y-3.2731
X10.9474Y-7.0912
X10.9561Y-6.9706
X10.9578Y-3.1264
X10.96Y-3.2908
X10.9731Y-4.2314
X10.9758Y-5.657
X11.0329Y-4.5684
X11.0399Y-4.6216
X11.1025Y-7.4557
X11.1455Y-5.3379
X11.154Y-7.1094
X11.1563Y-5.7612
X11.2012Y-5.4634
X11.2104Y-5.0775
X11.2369Y-5.7327
X11.291Y-5.6499
X11.337Y-7.7734
X11.3497Y-5.0348
X11.3658Y-5.4896
X11.4222Y-5.9997
X11.4419Y-6.3042
X11.4804Y-8.126
X11.4974Y-5.3114
X11.5875Y-6.5951
X11.6481Y-6.0501
X11.7265Y-7.8281
X11.7442Y-6.7424
X11.7654Y-5.8104
X11.7875Y-5.5855
X11.7989Y-4.7805
X11.8883Y-6.6161
X11.948Y-6.473
X11.956Y-6.7043
X12.0263Y-6.8893
X12.0844Y-5.4669
X12.0946Y-7.2861
X12.1163Y-6.6057
X12.2022Y-8.0656
X12.2193Y-7.7351
X12.2507Y-7.6557
X12.2698Y-6.2426
X12.34Y-7.0633
X12.3608Y-7.3303
X12.3715Y-6.6943
X12.4028Y-6.5061
X12.4249Y-6.143
X12.5086Y-7.0
X12.5791Y-6.7012
X12.6633Y-4.9293
X12.6692Y-6.8799
X12.6836Y-7.4258
X12.7271Y-7.141
X12.8296Y-7.2486
X12.8514Y-7.4719
X12.8744Y-6.7659
X12.8846Y-6.2148
X12.8916Y-7.8545
X12.8953Y-3.4602
X13.0408Y-6.6549
X13.0481Y-7.4
X13.0583Y-7.7202
X13.2016Y-6.7271
X13.2114Y-7.3008
X13.3258Y-6.1944
X13.6419Y-6.2162
X13.6735Y-7.4719
T2
X5.05Y-3.675
X5.1Y-3.625
X5.15Y-3.675
X8.025Y-6.85
X8.075Y-6.8
X8.125Y-6.85
T3
X11.9Y-7.175
X12.0969Y-7.175
X11.05Y-5.95
X11.05Y-6.05
X11.05Y-6.15
X11.05Y-6.25
X11.05Y-6.35
X11.05Y-6.45
X11.05Y-6.55
X11.35Y-5.95
X11.35Y-6.05
X11.35Y-6.15
X11.35Y-6.25
X11.35Y-6.35
X11.35Y-6.45
X11.35Y-6.55
X7.025Y-5.025
X7.2219Y-5.025
X7.025Y-7.275
X7.2219Y-7.275
X6.45Y-4.1
X6.45Y-4.2
X6.45Y-4.3
X6.45Y-4.4
X6.45Y-4.5
X6.45Y-4.6
X6.45Y-4.7
X6.45Y-4.8
X6.75Y-4.1
X6.75Y-4.2
X6.75Y-4.3
X6.75Y-4.4
X6.75Y-4.5
X6.75Y-4.6
X6.75Y-4.7
X6.75Y-4.8
X11.225Y-5.175
X11.325Y-5.175
X11.425Y-5.175
X11.525Y-5.175
X11.625Y-5.175
X11.725Y-5.175
X11.825Y-5.175
X11.925Y-5.175
X12.025Y-5.175
X11.1531Y-6.975
X11.35Y-6.975
X5.1281Y-6.075
X5.325Y-6.075
X4.1031Y-6.075
X4.3Y-6.075
X8.55Y-4.7
X8.55Y-5.0
X5.0Y-7.2
X5.0Y-7.3
X5.0Y-7.4
X5.0Y-7.5
X5.0Y-7.6
X5.0Y-7.7
X5.0Y-7.8
X5.0Y-7.9
X5.3Y-7.2
X5.3Y-7.3
X5.3Y-7.4
X5.3Y-7.5
X5.3Y-7.6
X5.3Y-7.7
X5.3Y-7.8
X5.3Y-7.9
X12.975Y-5.8
X12.975Y-5.9
X12.975Y-6.0
X12.975Y-6.1
X12.975Y-6.2
X12.975Y-6.3
X12.975Y-6.4
X12.975Y-6.5
X12.975Y-6.6
X12.975Y-6.7
X12.975Y-6.8
X12.975Y-6.9
X12.975Y-7.0
X12.975Y-7.1
X12.975Y-7.2
X12.975Y-7.3
X12.975Y-7.4
X12.975Y-7.5
X12.975Y-7.6
X12.975Y-7.7
X13.575Y-5.8
X13.575Y-5.9
X13.575Y-6.0
X13.575Y-6.1
X13.575Y-6.2
X13.575Y-6.3
X13.575Y-6.4
X13.575Y-6.5
X13.575Y-6.6
X13.575Y-6.7
X13.575Y-6.8
X13.575Y-6.9
X13.575Y-7.0
X13.575Y-7.1
X13.575Y-7.2
X13.575Y-7.3
X13.575Y-7.4
X13.575Y-7.5
X13.575Y-7.6
X13.575Y-7.7
X11.675Y-8.05
X11.975Y-8.05
X5.95Y-7.35
X5.95Y-7.65
X4.6031Y-7.075
X4.8Y-7.075
X7.175Y-3.325
X7.275Y-3.325
X7.375Y-3.325
X7.475Y-3.325
X7.575Y-3.325
X7.675Y-3.325
X7.775Y-3.325
X7.875Y-3.325
X7.975Y-3.325
X3.975Y-6.2
X3.975Y-6.3
X3.975Y-6.4
X3.975Y-6.5
X3.975Y-6.6
X3.975Y-6.7
X3.975Y-6.8
X3.975Y-6.9
X4.275Y-6.2
X4.275Y-6.3
X4.275Y-6.4
X4.275Y-6.5
X4.275Y-6.6
X4.275Y-6.7
X4.275Y-6.8
X4.275Y-6.9
X4.55Y-5.15
X4.55Y-5.25
X4.55Y-5.35
X4.55Y-5.45
X4.55Y-5.55
X4.55Y-5.65
X4.55Y-5.75
X4.55Y-5.85
X4.85Y-5.15
X4.85Y-5.25
X4.85Y-5.35
X4.85Y-5.45
X4.85Y-5.55
X4.85Y-5.65
X4.85Y-5.75
X4.85Y-5.85
X6.9Y-6.2
X6.9Y-6.3
X6.9Y-6.4
X6.9Y-6.5
X6.9Y-6.6
X6.9Y-6.7
X6.9Y-6.8
X6.9Y-6.9
X7.2Y-6.2
X7.2Y-6.3
X7.2Y-6.4
X7.2Y-6.5
X7.2Y-6.6
X7.2Y-6.7
X7.2Y-6.8
X7.2Y-6.9
X10.15Y-4.85
X10.3469Y-4.85
X6.575Y-5.025
X6.7719Y-5.025
X4.225Y-4.525
X4.225Y-4.825
X10.925Y-7.9
X11.225Y-7.9
X10.125Y-7.9
X10.425Y-7.9
X10.125Y-8.05
X10.425Y-8.05
X8.15Y-7.65
X8.15Y-7.95
X8.325Y-7.625
X8.625Y-7.625
X3.625Y-4.075
X3.625Y-4.375
X7.9Y-7.65
X7.9Y-7.95
X4.075Y-5.15
X4.075Y-5.25
X4.075Y-5.35
X4.075Y-5.45
X4.075Y-5.55
X4.075Y-5.65
X4.075Y-5.75
X4.075Y-5.85
X4.375Y-5.15
X4.375Y-5.25
X4.375Y-5.35
X4.375Y-5.45
X4.375Y-5.55
X4.375Y-5.65
X4.375Y-5.75
X4.375Y-5.85
X8.3Y-6.35
X8.3Y-6.45
X8.3Y-6.55
X8.3Y-6.65
X8.3Y-6.75
X8.3Y-6.85
X8.3Y-6.95
X8.3Y-7.05
X8.6Y-6.35
X8.6Y-6.45
X8.6Y-6.55
X8.6Y-6.65
X8.6Y-6.75
X8.6Y-6.85
X8.6Y-6.95
X8.6Y-7.05
X10.575Y-4.725
X10.575Y-4.825
X10.575Y-4.925
X10.575Y-5.025
X10.575Y-5.125
X10.575Y-5.225
X10.575Y-5.325
X10.875Y-4.725
X10.875Y-4.825
X10.875Y-4.925
X10.875Y-5.025
X10.875Y-5.125
X10.875Y-5.225
X10.875Y-5.325
X11.65Y-5.825
X11.8469Y-5.825
X12.025Y-7.4
X12.025Y-7.5
X12.025Y-7.6
X12.025Y-7.7
X12.325Y-7.4
X12.325Y-7.5
X12.325Y-7.6
X12.325Y-7.7
X9.55Y-4.975
X9.55Y-5.075
X9.55Y-5.175
X9.55Y-5.275
X9.55Y-5.375
X9.55Y-5.475
X9.55Y-5.575
X9.55Y-5.675
X9.85Y-4.975
X9.85Y-5.075
X9.85Y-5.175
X9.85Y-5.275
X9.85Y-5.375
X9.85Y-5.475
X9.85Y-5.575
X9.85Y-5.675
X7.525Y-7.275
X7.7219Y-7.275
X8.5Y-4.5
X8.6969Y-4.5
X7.35Y-5.15
X7.35Y-5.25
X7.35Y-5.35
X7.35Y-5.45
X7.35Y-5.55
X7.35Y-5.65
X7.35Y-5.75
X7.35Y-5.85
X7.65Y-5.15
X7.65Y-5.25
X7.65Y-5.35
X7.65Y-5.45
X7.65Y-5.55
X7.65Y-5.65
X7.65Y-5.75
X7.65Y-5.85
X10.025Y-4.975
X10.025Y-5.075
X10.025Y-5.175
X10.025Y-5.275
X10.025Y-5.375
X10.025Y-5.475
X10.025Y-5.575
X10.025Y-5.675
X10.325Y-4.975
X10.325Y-5.075
X10.325Y-5.175
X10.325Y-5.275
X10.325Y-5.375
X10.325Y-5.475
X10.325Y-5.575
X10.325Y-5.675
X9.525Y-7.825
X9.7219Y-7.825
X9.175Y-4.575
X9.3719Y-4.575
X3.9Y-3.975
X4.0969Y-3.975
X3.6031Y-7.075
X3.8Y-7.075
X5.5Y-7.2
X5.5Y-7.3
X5.5Y-7.4
X5.5Y-7.5
X5.5Y-7.6
X5.5Y-7.7
X5.5Y-7.8
X5.5Y-7.9
X5.5Y-8.0
X5.5Y-8.1
X5.8Y-7.2
X5.8Y-7.3
X5.8Y-7.4
X5.8Y-7.5
X5.8Y-7.6
X5.8Y-7.7
X5.8Y-7.8
X5.8Y-7.9
X5.8Y-8.0
X5.8Y-8.1
X11.175Y-5.825
X11.3719Y-5.825
X7.0281Y-3.975
X7.225Y-3.975
X6.125Y-5.025
X6.3219Y-5.025
X5.95Y-7.75
X5.95Y-8.05
X3.625Y-4.5
X3.625Y-4.8
X13.2Y-7.825
X13.2Y-8.125
X10.15Y-5.85
X10.3469Y-5.85
X11.675Y-7.9
X11.975Y-7.9
X12.625Y-5.825
X12.8219Y-5.825
X8.575Y-4.1079
X8.575Y-4.3
X4.6Y-3.7
X4.9Y-3.7
X7.8Y-3.95
X7.8Y-4.05
X7.8Y-4.15
X7.8Y-4.25
X7.8Y-4.35
X7.8Y-4.45
X7.8Y-4.55
X7.8Y-4.65
X7.8Y-4.75
X7.8Y-4.85
X7.8Y-4.95
X7.8Y-5.05
X7.8Y-5.15
X7.8Y-5.25
X7.8Y-5.35
X7.8Y-5.45
X7.8Y-5.55
X7.8Y-5.65
X7.8Y-5.75
X7.8Y-5.85
X8.4Y-3.95
X8.4Y-4.05
X8.4Y-4.15
X8.4Y-4.25
X8.4Y-4.35
X8.4Y-4.45
X8.4Y-4.55
X8.4Y-4.65
X8.4Y-4.75
X8.4Y-4.85
X8.4Y-4.95
X8.4Y-5.05
X8.4Y-5.15
X8.4Y-5.25
X8.4Y-5.35
X8.4Y-5.45
X8.4Y-5.55
X8.4Y-5.65
X8.4Y-5.75
X8.4Y-5.85
X3.475Y-6.2
X3.475Y-6.3
X3.475Y-6.4
X3.475Y-6.5
X3.475Y-6.6
X3.475Y-6.7
X3.475Y-6.8
X3.475Y-6.9
X3.775Y-6.2
X3.775Y-6.3
X3.775Y-6.4
X3.775Y-6.5
X3.775Y-6.6
X3.775Y-6.7
X3.775Y-6.8
X3.775Y-6.9
X13.4122Y-3.075
X13.55Y-3.075
X6.9Y-7.4
X6.9Y-7.5
X6.9Y-7.6
X6.9Y-7.7
X6.9Y-7.8
X6.9Y-7.9
X6.9Y-8.0
X6.9Y-8.1
X7.2Y-7.4
X7.2Y-7.5
X7.2Y-7.6
X7.2Y-7.7
X7.2Y-7.8
X7.2Y-7.9
X7.2Y-8.0
X7.2Y-8.1
X4.5Y-3.975
X4.6969Y-3.975
X9.525Y-7.95
X9.825Y-7.95
X12.15Y-5.825
X12.3469Y-5.825
X6.0Y-5.15
X6.0Y-5.25
X6.0Y-5.35
X6.0Y-5.45
X6.0Y-5.55
X6.0Y-5.65
X6.0Y-5.75
X6.0Y-5.85
X6.3Y-5.15
X6.3Y-5.25
X6.3Y-5.35
X6.3Y-5.45
X6.3Y-5.55
X6.3Y-5.65
X6.3Y-5.75
X6.3Y-5.85
X5.15Y-3.975
X5.3469Y-3.975
X11.625Y-6.975
X11.8219Y-6.975
X10.1Y-6.825
X10.4Y-6.825
X8.55Y-5.1
X8.55Y-5.4
X12.075Y-8.05
X12.375Y-8.05
X5.525Y-4.3829
X5.525Y-4.575
X6.45Y-5.15
X6.45Y-5.25
X6.45Y-5.35
X6.45Y-5.45
X6.45Y-5.55
X6.45Y-5.65
X6.45Y-5.75
X6.45Y-5.85
X6.75Y-5.15
X6.75Y-5.25
X6.75Y-5.35
X6.75Y-5.45
X6.75Y-5.55
X6.75Y-5.65
X6.75Y-5.75
X6.75Y-5.85
X4.475Y-6.2
X4.475Y-6.3
X4.475Y-6.4
X4.475Y-6.5
X4.475Y-6.6
X4.475Y-6.7
X4.475Y-6.8
X4.475Y-6.9
X4.775Y-6.2
X4.775Y-6.3
X4.775Y-6.4
X4.775Y-6.5
X4.775Y-6.6
X4.775Y-6.7
X4.775Y-6.8
X4.775Y-6.9
X7.4781Y-3.975
X7.675Y-3.975
X5.4531Y-4.075
X5.65Y-4.075
X8.75Y-6.2
X8.75Y-6.3
X8.75Y-6.4
X8.75Y-6.5
X8.75Y-6.6
X8.75Y-6.7
X8.75Y-6.8
X8.75Y-6.9
X8.75Y-7.0
X8.75Y-7.1
X8.75Y-7.2
X8.75Y-7.3
X8.75Y-7.4
X8.75Y-7.5
X8.75Y-7.6
X8.75Y-7.7
X8.75Y-7.8
X8.75Y-7.9
X8.75Y-8.0
X8.75Y-8.1
X9.35Y-6.2
X9.35Y-6.3
X9.35Y-6.4
X9.35Y-6.5
X9.35Y-6.6
X9.35Y-6.7
X9.35Y-6.8
X9.35Y-6.9
X9.35Y-7.0
X9.35Y-7.1
X9.35Y-7.2
X9.35Y-7.3
X9.35Y-7.4
X9.35Y-7.5
X9.35Y-7.6
X9.35Y-7.7
X9.35Y-7.8
X9.35Y-7.9
X9.35Y-8.0
X9.35Y-8.1
X5.775Y-4.3
X5.775Y-4.6
X10.05Y-4.675
X10.35Y-4.675
X10.7Y-4.6
X10.8969Y-4.6
X10.575Y-7.4
X10.575Y-7.5
X10.575Y-7.6
X10.575Y-7.7
X10.875Y-7.4
X10.875Y-7.5
X10.875Y-7.6
X10.875Y-7.7
X8.425Y-6.225
X8.6219Y-6.225
X11.95Y-7.0
X12.05Y-7.0
X12.15Y-7.0
X12.25Y-7.0
X12.35Y-7.0
X10.525Y-6.475
X10.525Y-6.775
X7.4Y-6.975
X7.7Y-6.975
X8.55Y-5.525
X8.55Y-5.825
X6.1Y-6.2
X6.1Y-6.3
X6.1Y-6.4
X6.1Y-6.5
X6.1Y-6.6
X6.1Y-6.7
X6.1Y-6.8
X6.1Y-6.9
X6.1Y-7.0
X6.1Y-7.1
X6.1Y-7.2
X6.1Y-7.3
X6.1Y-7.4
X6.1Y-7.5
X6.1Y-7.6
X6.1Y-7.7
X6.1Y-7.8
X6.1Y-7.9
X6.1Y-8.0
X6.1Y-8.1
X6.7Y-6.2
X6.7Y-6.3
X6.7Y-6.4
X6.7Y-6.5
X6.7Y-6.6
X6.7Y-6.7
X6.7Y-6.8
X6.7Y-6.9
X6.7Y-7.0
X6.7Y-7.1
X6.7Y-7.2
X6.7Y-7.3
X6.7Y-7.4
X6.7Y-7.5
X6.7Y-7.6
X6.7Y-7.7
X6.7Y-7.8
X6.7Y-7.9
X6.7Y-8.0
X6.7Y-8.1
X6.575Y-3.975
X6.7719Y-3.975
X9.675Y-6.95
X9.8719Y-6.95
X5.0Y-6.2
X5.0Y-6.3
X5.0Y-6.4
X5.0Y-6.5
X5.0Y-6.6
X5.0Y-6.7
X5.0Y-6.8
X5.0Y-6.9
X5.3Y-6.2
X5.3Y-6.3
X5.3Y-6.4
X5.3Y-6.5
X5.3Y-6.6
X5.3Y-6.7
X5.3Y-6.8
X5.3Y-6.9
X5.6281Y-7.075
X5.825Y-7.075
X7.475Y-5.025
X7.6719Y-5.025
X10.925Y-8.05
X11.225Y-8.05
X3.6031Y-6.075
X3.8Y-6.075
X9.537Y-5.975
X9.537Y-6.075
X9.537Y-6.175
X9.537Y-6.275
X9.537Y-6.375
X9.537Y-6.475
X9.537Y-6.575
X9.537Y-6.675
X9.837Y-5.975
X9.837Y-6.075
X9.837Y-6.175
X9.837Y-6.275
X9.837Y-6.375
X9.837Y-6.475
X9.837Y-6.575
X9.837Y-6.675
X5.45Y-4.775
X5.6469Y-4.775
X9.55Y-7.075
X9.55Y-7.175
X9.55Y-7.275
X9.55Y-7.375
X9.55Y-7.475
X9.55Y-7.575
X9.55Y-7.675
X9.85Y-7.075
X9.85Y-7.175
X9.85Y-7.275
X9.85Y-7.375
X9.85Y-7.475
X9.85Y-7.575
X9.85Y-7.675
X9.5Y-6.825
X9.8Y-6.825
X10.25Y-7.5
X10.3878Y-7.5
X5.95Y-3.65
X6.25Y-3.65
X10.675Y-5.525
X10.8719Y-5.525
X10.7Y-7.0
X10.8378Y-7.0
X10.525Y-7.9
X10.825Y-7.9
X8.175Y-7.2
X8.175Y-7.5
X12.025Y-5.95
X12.025Y-6.05
X12.025Y-6.15
X12.025Y-6.25
X12.025Y-6.35
X12.025Y-6.45
X12.025Y-6.55
X12.025Y-6.65
X12.325Y-5.95
X12.325Y-6.05
X12.325Y-6.15
X12.325Y-6.25
X12.325Y-6.35
X12.325Y-6.45
X12.325Y-6.55
X12.325Y-6.65
X8.425Y-7.225
X8.6219Y-7.225
X6.575Y-2.825
X6.575Y-2.925
X6.575Y-3.025
X6.575Y-3.125
X6.575Y-3.225
X6.575Y-3.325
X6.575Y-3.425
X6.575Y-3.525
X6.575Y-3.625
X6.575Y-3.725
X6.875Y-2.825
X6.875Y-2.925
X6.875Y-3.025
X6.875Y-3.125
X6.875Y-3.225
X6.875Y-3.325
X6.875Y-3.425
X6.875Y-3.525
X6.875Y-3.625
X6.875Y-3.725
X12.625Y-6.975
X12.8219Y-6.975
X3.475Y-7.2
X3.475Y-7.3
X3.475Y-7.4
X3.475Y-7.5
X3.475Y-7.6
X3.475Y-7.7
X3.475Y-7.8
X3.475Y-7.9
X3.775Y-7.2
X3.775Y-7.3
X3.775Y-7.4
X3.775Y-7.5
X3.775Y-7.6
X3.775Y-7.7
X3.775Y-7.8
X3.775Y-7.9
X7.4Y-6.2
X7.4Y-6.3
X7.4Y-6.4
X7.4Y-6.5
X7.4Y-6.6
X7.4Y-6.7
X7.4Y-6.8
X7.7Y-6.2
X7.7Y-6.3
X7.7Y-6.4
X7.7Y-6.5
X7.7Y-6.6
X7.7Y-6.7
X7.7Y-6.8
X5.45Y-4.175
X5.6469Y-4.175
X10.025Y-5.975
X10.025Y-6.075
X10.025Y-6.175
X10.025Y-6.275
X10.025Y-6.375
X10.025Y-6.475
X10.025Y-6.575
X10.025Y-6.675
X10.325Y-5.975
X10.325Y-6.075
X10.325Y-6.175
X10.325Y-6.275
X10.325Y-6.375
X10.325Y-6.475
X10.325Y-6.575
X10.325Y-6.675
X7.525Y-6.075
X7.7219Y-6.075
X8.025Y-7.65
X8.025Y-7.95
X12.5Y-7.1
X12.5Y-7.2
X12.5Y-7.3
X12.5Y-7.4
X12.5Y-7.5
X12.5Y-7.6
X12.5Y-7.7
X12.8Y-7.1
X12.8Y-7.2
X12.8Y-7.3
X12.8Y-7.4
X12.8Y-7.5
X12.8Y-7.6
X12.8Y-7.7
X6.9Y-4.1
X6.9Y-4.2
X6.9Y-4.3
X6.9Y-4.4
X6.9Y-4.5
X6.9Y-4.6
X6.9Y-4.7
X6.9Y-4.8
X7.2Y-4.1
X7.2Y-4.2
X7.2Y-4.3
X7.2Y-4.4
X7.2Y-4.5
X7.2Y-4.6
X7.2Y-4.7
X7.2Y-4.8
X8.75Y-4.7
X8.75Y-4.8
X8.75Y-4.9
X8.75Y-5.0
X8.75Y-5.1
X8.75Y-5.2
X8.75Y-5.3
X8.75Y-5.4
X8.75Y-5.5
X8.75Y-5.6
X8.75Y-5.7
X8.75Y-5.8
X8.75Y-5.9
X8.75Y-6.0
X9.35Y-4.7
X9.35Y-4.8
X9.35Y-4.9
X9.35Y-5.0
X9.35Y-5.1
X9.35Y-5.2
X9.35Y-5.3
X9.35Y-5.4
X9.35Y-5.5
X9.35Y-5.6
X9.35Y-5.7
X9.35Y-5.8
X9.35Y-5.9
X9.35Y-6.0
X5.125Y-7.075
X5.3219Y-7.075
X10.7Y-6.6
X10.8378Y-6.6
X12.7372Y-7.975
X12.875Y-7.975
X10.1Y-7.025
X10.4Y-7.025
X11.3872Y-7.95
X11.525Y-7.95
X8.425Y-7.975
X8.5628Y-7.975
X13.4Y-3.375
X13.5969Y-3.375
X5.95Y-6.5
X5.95Y-6.8
X5.95Y-6.0
X5.95Y-6.3
X5.5Y-5.15
X5.5Y-5.25
X5.5Y-5.35
X5.5Y-5.45
X5.5Y-5.55
X5.5Y-5.65
X5.5Y-5.75
X5.5Y-5.85
X5.8Y-5.15
X5.8Y-5.25
X5.8Y-5.35
X5.8Y-5.45
X5.8Y-5.55
X5.8Y-5.65
X5.8Y-5.75
X5.8Y-5.85
X3.6Y-5.25
X3.6Y-5.35
X3.6Y-5.45
X3.6Y-5.55
X3.6Y-5.65
X3.6Y-5.75
X3.6Y-5.85
X3.9Y-5.25
X3.9Y-5.35
X3.9Y-5.45
X3.9Y-5.55
X3.9Y-5.65
X3.9Y-5.75
X3.9Y-5.85
X12.5Y-5.95
X12.5Y-6.05
X12.5Y-6.15
X12.5Y-6.25
X12.5Y-6.35
X12.5Y-6.45
X12.5Y-6.55
X12.5Y-6.65
X12.8Y-5.95
X12.8Y-6.05
X12.8Y-6.15
X12.8Y-6.25
X12.8Y-6.35
X12.8Y-6.45
X12.8Y-6.55
X12.8Y-6.65
X5.5Y-6.2
X5.5Y-6.3
X5.5Y-6.4
X5.5Y-6.5
X5.5Y-6.6
X5.5Y-6.7
X5.5Y-6.8
X5.5Y-6.9
X5.8Y-6.2
X5.8Y-6.3
X5.8Y-6.4
X5.8Y-6.5
X5.8Y-6.6
X5.8Y-6.7
X5.8Y-6.8
X5.8Y-6.9
X10.525Y-8.05
X10.825Y-8.05
X5.025Y-4.1
X5.025Y-4.2
X5.025Y-4.3
X5.025Y-4.4
X5.025Y-4.5
X5.025Y-4.6
X5.025Y-4.7
X5.325Y-4.1
X5.325Y-4.2
X5.325Y-4.3
X5.325Y-4.4
X5.325Y-4.5
X5.325Y-4.6
X5.325Y-4.7
X4.6031Y-6.075
X4.8Y-6.075
X6.9Y-5.15
X6.9Y-5.25
X6.9Y-5.35
X6.9Y-5.45
X6.9Y-5.55
X6.9Y-5.65
X6.9Y-5.75
X6.9Y-5.85
X7.2Y-5.15
X7.2Y-5.25
X7.2Y-5.35
X7.2Y-5.45
X7.2Y-5.55
X7.2Y-5.65
X7.2Y-5.75
X7.2Y-5.85
X8.5Y-3.9
X8.6969Y-3.9
X4.225Y-4.075
X4.225Y-4.375
X13.375Y-5.675
X13.5719Y-5.675
X7.4Y-7.4
X7.4Y-7.5
X7.4Y-7.6
X7.4Y-7.7
X7.4Y-7.8
X7.4Y-7.9
X7.4Y-8.0
X7.4Y-8.1
X7.7Y-7.4
X7.7Y-7.5
X7.7Y-7.6
X7.7Y-7.7
X7.7Y-7.8
X7.7Y-7.9
X7.7Y-8.0
X7.7Y-8.1
X5.125Y-4.825
X5.3219Y-4.825
X10.525Y-6.9
X10.525Y-7.2
X6.0Y-4.1
X6.0Y-4.2
X6.0Y-4.3
X6.0Y-4.4
X6.0Y-4.5
X6.0Y-4.6
X6.0Y-4.7
X6.0Y-4.8
X6.3Y-4.1
X6.3Y-4.2
X6.3Y-4.3
X6.3Y-4.4
X6.3Y-4.5
X6.3Y-4.6
X6.3Y-4.7
X6.3Y-4.8
X11.5Y-7.1
X11.5Y-7.2
X11.5Y-7.3
X11.5Y-7.4
X11.5Y-7.5
X11.5Y-7.6
X11.5Y-7.7
X11.8Y-7.1
X11.8Y-7.2
X11.8Y-7.3
X11.8Y-7.4
X11.8Y-7.5
X11.8Y-7.6
X11.8Y-7.7
X8.325Y-7.425
X8.625Y-7.425
X12.15Y-7.275
X12.3469Y-7.275
X4.875Y-4.425
X4.875Y-4.725
X7.5Y-3.675
X7.6378Y-3.675
X9.675Y-4.85
X9.8719Y-4.85
X7.025Y-6.075
X7.2219Y-6.075
X5.6281Y-6.075
X5.825Y-6.075
X12.525Y-7.825
X12.525Y-8.125
X10.7Y-7.275
X10.8969Y-7.275
X3.775Y-4.1
X3.775Y-4.2
X3.775Y-4.3
X3.775Y-4.4
X3.775Y-4.5
X3.775Y-4.6
X3.775Y-4.7
X3.775Y-4.8
X4.075Y-4.1
X4.075Y-4.2
X4.075Y-4.3
X4.075Y-4.4
X4.075Y-4.5
X4.075Y-4.6
X4.075Y-4.7
X4.075Y-4.8
X10.125Y-7.2
X10.3219Y-7.2
X3.975Y-7.2
X3.975Y-7.3
X3.975Y-7.4
X3.975Y-7.5
X3.975Y-7.6
X3.975Y-7.7
X3.975Y-7.8
X3.975Y-7.9
X4.275Y-7.2
X4.275Y-7.3
X4.275Y-7.4
X4.275Y-7.5
X4.275Y-7.6
X4.275Y-7.7
X4.275Y-7.8
X4.275Y-7.9
X11.525Y-5.95
X11.525Y-6.05
X11.525Y-6.15
X11.525Y-6.25
X11.525Y-6.35
X11.525Y-6.45
X11.525Y-6.55
X11.825Y-5.95
X11.825Y-6.05
X11.825Y-6.15
X11.825Y-6.25
X11.825Y-6.35
X11.825Y-6.45
X11.825Y-6.55
X10.55Y-5.65
X10.55Y-5.75
X10.55Y-5.85
X10.55Y-5.95
X10.55Y-6.05
X10.55Y-6.15
X10.55Y-6.25
X10.85Y-5.65
X10.85Y-5.75
X10.85Y-5.85
X10.85Y-5.95
X10.85Y-6.05
X10.85Y-6.15
X10.85Y-6.25
X4.475Y-7.2
X4.475Y-7.3
X4.475Y-7.4
X4.475Y-7.5
X4.475Y-7.6
X4.475Y-7.7
X4.475Y-7.8
X4.475Y-7.9
X4.775Y-7.2
X4.775Y-7.3
X4.775Y-7.4
X4.775Y-7.5
X4.775Y-7.6
X4.775Y-7.7
X4.775Y-7.8
X4.775Y-7.9
X9.65Y-5.85
X9.8469Y-5.85
X12.075Y-7.9
X12.2719Y-7.9
X6.1281Y-3.975
X6.325Y-3.975
X11.025Y-7.1
X11.025Y-7.2
X11.025Y-7.3
X11.025Y-7.4
X11.025Y-7.5
X11.025Y-7.6
X11.025Y-7.7
X11.325Y-7.1
X11.325Y-7.2
X11.325Y-7.3
X11.325Y-7.4
X11.325Y-7.5
X11.325Y-7.6
X11.325Y-7.7
X5.975Y-6.9031
X5.975Y-7.1
X7.95Y-6.475
X8.0878Y-6.475
X4.1Y-7.075
X4.2969Y-7.075
X5.025Y-5.15
X5.025Y-5.25
X5.025Y-5.35
X5.025Y-5.45
X5.025Y-5.55
X5.025Y-5.65
X5.025Y-5.75
X5.025Y-5.85
X5.325Y-5.15
X5.325Y-5.25
X5.325Y-5.35
X5.325Y-5.45
X5.325Y-5.55
X5.325Y-5.65
X5.325Y-5.75
X5.325Y-5.85
X8.05Y-7.2
X8.05Y-7.5
X12.0Y-6.8
X12.1Y-6.8
X12.2Y-6.8
X12.3Y-6.8
X12.4Y-6.8
X12.5Y-6.8
X12.6Y-6.8
X12.7Y-6.8
X12.8Y-6.8
X13.35Y-3.575
X13.65Y-3.575
X4.375Y-4.1
X4.375Y-4.2
X4.375Y-4.3
X4.375Y-4.4
X4.375Y-4.5
X4.375Y-4.6
X4.375Y-4.7
X4.675Y-4.1
X4.675Y-4.2
X4.675Y-4.3
X4.675Y-4.4
X4.675Y-4.5
X4.675Y-4.6
X4.675Y-4.7
X7.35Y-4.1
X7.35Y-4.2
X7.35Y-4.3
X7.35Y-4.4
X7.35Y-4.5
X7.35Y-4.6
X7.35Y-4.7
X7.35Y-4.8
X7.65Y-4.1
X7.65Y-4.2
X7.65Y-4.3
X7.65Y-4.4
X7.65Y-4.5
X7.65Y-4.6
X7.65Y-4.7
X7.65Y-4.8
T4
X4.3Y-3.075
X4.3Y-3.375
X13.425Y-7.975
X13.525Y-7.975
X12.05Y-5.55
X12.35Y-5.55
X13.45Y-3.9
X13.55Y-3.9
X11.625Y-5.55
X11.925Y-5.55
X7.9Y-7.2
X7.9Y-7.5
X11.2Y-5.55
X11.5Y-5.55
T5
X13.525Y-5.0
X13.625Y-5.0
T6
X13.9Y-6.9388
X13.9Y-7.0478
X13.9Y-7.1569
X13.9Y-7.2659
X13.9Y-7.375
X14.0118Y-6.9933
X14.0118Y-7.1024
X14.0118Y-7.2114
X14.0118Y-7.3205
X7.25Y-2.9
X7.25Y-3.0
X7.35Y-2.9
X7.35Y-3.0
X7.45Y-2.9
X7.45Y-3.0
X7.55Y-2.9
X7.55Y-3.0
X7.65Y-2.9
X7.65Y-3.0
X7.75Y-2.9
X7.75Y-3.0
X7.85Y-2.9
X7.85Y-3.0
X11.225Y-4.95
X11.325Y-4.95
X11.425Y-4.95
X11.525Y-4.95
X11.625Y-4.95
X11.725Y-4.95
X11.825Y-4.95
X11.925Y-4.95
X11.225Y-5.375
X11.325Y-5.375
X11.425Y-5.375
X11.525Y-5.375
X11.625Y-5.375
X11.725Y-5.375
X11.825Y-5.375
X11.925Y-5.375
X12.025Y-5.375
X12.125Y-5.375
X12.225Y-5.375
X12.325Y-5.375
X10.375Y-3.475
X10.375Y-3.575
X10.475Y-3.475
X10.475Y-3.575
X10.575Y-3.475
X10.575Y-3.575
X10.675Y-3.475
X10.675Y-3.575
X10.775Y-3.475
X10.775Y-3.575
X10.875Y-3.475
X10.875Y-3.575
X10.975Y-3.475
X10.975Y-3.575
X11.075Y-3.475
X11.075Y-3.575
X11.175Y-3.475
X11.175Y-3.575
X11.275Y-3.475
X11.275Y-3.575
X11.375Y-3.475
X11.375Y-3.575
X11.475Y-3.475
X11.475Y-3.575
X11.575Y-3.475
X11.575Y-3.575
X11.675Y-3.475
X11.675Y-3.575
X11.775Y-3.475
X11.775Y-3.575
X11.875Y-3.475
X11.875Y-3.575
X11.975Y-3.475
X11.975Y-3.575
X12.075Y-3.475
X12.075Y-3.575
X12.175Y-3.475
X12.175Y-3.575
X12.275Y-3.475
X12.275Y-3.575
X12.375Y-3.475
X12.375Y-3.575
X12.475Y-3.475
X12.475Y-3.575
X12.575Y-3.475
X12.575Y-3.575
X12.675Y-3.475
X12.675Y-3.575
X12.775Y-3.475
X12.775Y-3.575
X8.85Y-2.975
X8.95Y-2.975
X9.05Y-2.975
X9.15Y-2.975
X9.25Y-2.975
X9.35Y-2.975
X9.45Y-2.975
X13.9Y-5.6138
X13.9Y-5.7228
X13.9Y-5.8319
X13.9Y-5.9409
X13.9Y-6.05
X14.0118Y-5.6683
X14.0118Y-5.7774
X14.0118Y-5.8864
X14.0118Y-5.9955
X10.375Y-2.9
X10.375Y-3.0
X10.475Y-2.9
X10.475Y-3.0
X10.575Y-2.9
X10.575Y-3.0
X10.675Y-2.9
X10.675Y-3.0
X10.775Y-2.9
X10.775Y-3.0
X10.875Y-2.9
X10.875Y-3.0
X10.975Y-2.9
X10.975Y-3.0
X11.075Y-2.9
X11.075Y-3.0
X11.175Y-2.9
X11.175Y-3.0
X11.275Y-2.9
X11.275Y-3.0
X11.375Y-2.9
X11.375Y-3.0
X11.475Y-2.9
X11.475Y-3.0
X11.575Y-2.9
X11.575Y-3.0
X11.675Y-2.9
X11.675Y-3.0
X11.775Y-2.9
X11.775Y-3.0
X11.875Y-2.9
X11.875Y-3.0
X11.975Y-2.9
X11.975Y-3.0
X12.075Y-2.9
X12.075Y-3.0
X12.175Y-2.9
X12.175Y-3.0
X12.275Y-2.9
X12.275Y-3.0
X12.375Y-2.9
X12.375Y-3.0
X12.475Y-2.9
X12.475Y-3.0
X12.575Y-2.9
X12.575Y-3.0
X12.675Y-2.9
X12.675Y-3.0
X12.775Y-2.9
X12.775Y-3.0
T7
X3.65Y-3.525
X3.65Y-3.7022
X3.9059Y-3.525
X3.9059Y-3.7022
T8
X4.6409Y-2.9638
X4.6409Y-3.4362
X5.1213Y-2.9638
X5.1213Y-3.4362
X5.2Y-3.2
T9
X13.8835Y-3.475
X13.8835Y-3.6404
X13.8835Y-3.8057
X13.8835Y-3.9711
X13.8835Y-4.1364
X13.8835Y-4.3018
X13.8835Y-4.4671
X13.8835Y-4.6325
X13.8835Y-4.7978
X13.8835Y-4.9632
X14.1Y-3.475
X14.1Y-3.6404
X14.1Y-3.8057
X14.1Y-3.9711
X14.1Y-4.1364
X14.1Y-4.3018
X14.1Y-4.4671
X14.1Y-4.6325
X14.1Y-4.7978
X14.1Y-4.9632
X5.5844Y-3.35
X5.6829Y-3.2516
X5.7813Y-2.8579
X5.7813Y-3.35
X5.8797Y-3.2516
X5.8797Y-3.4484
X5.9781Y-2.8579
X5.9781Y-3.35
X6.0766Y-3.2516
X6.175Y-3.35
T10
X5.5844Y-3.0547
X6.175Y-3.0547
T11
X13.9118Y-5.3398
X13.9118Y-6.324
X13.9118Y-6.6648
X13.9118Y-7.649
T3
G00X13.8Y-3.1512
M15
G01X13.8Y-3.0488
M16
G05
G00X13.9614Y-2.911
M15
G01X13.8748Y-2.911
M16
G05
G00X14.0283Y-3.1433
M15
G01X14.0283Y-3.0567
M16
G05
T0
M30
